<svg xmlns="http://www.w3.org/2000/svg" width="32" height="32"><path fill="#fff" d="M30.491 15.396c0 8.17-6.488 14.792-14.491 14.792S1.509 23.565 1.509 15.396C1.509 7.226 7.997.604 16 .604s14.491 6.623 14.491 14.792z"/><path fill="#d41443" d="M12.084.53C5.097 2.646.906 8.146.906 15.098c0 5.682 2.916 10.639 7.716 13.117 2.491 1.269 2.855.363.547-1.39-1.64-1.33-1.944-1.934-1.944-4.171 0-1.572-.365-2.841-.911-3.325-1.094-.907-1.215-3.264-.122-4.11.425-.363.851-1.572.911-2.66.304-3.989 4.617-7.737 8.931-7.737s8.627 3.748 8.931 7.737c.061 1.088.486 2.297.911 2.66 1.094.846.972 3.204-.121 4.11-.547.484-.911 1.753-.911 3.325 0 2.237-.304 2.841-1.944 4.171-2.552 1.995-1.823 2.72 1.033.967 4.01-2.478 6.987-7.858 6.987-12.633 0-9.551-9.963-17.288-18.833-14.628z"/><path fill="#d41443" d="M12.874 7.542c-1.094.484-2.005 1.088-2.005 1.451 0 .665 3.281 1.874 5.164 1.874s5.164-1.209 5.164-1.874c0-.725-3.767-2.357-5.285-2.357-.608.061-2.005.423-3.038.907zM9.411 11.289c-.182.242-.364 1.028-.364 1.813 0 1.39.061 1.39 6.987 1.39s6.987 0 6.987-1.39c0-2.055-.547-2.297-2.491-1.33-2.187 1.149-6.804 1.149-8.991 0-.972-.484-1.883-.665-2.126-.484zM7.649 16.669c-.972 1.028.668 1.451 5.407 1.451h5.103v2.116c0 1.148.304 2.116.608 2.116.364 0 .608-.907.608-2.055 0-1.995.122-2.116 2.43-2.297 1.337-.121 2.43-.484 2.43-.786 0-.665-15.917-1.209-16.586-.544z"/><path fill="#d41443" d="M9.046 21.988c0 3.325 1.154 3.989 6.987 3.989s6.987-.665 6.987-3.989c0-1.451-.304-2.055-.911-2.055-.547 0-.911.544-.911 1.451 0 3.385-4.617 3.687-5.285.363-.304-1.753-.486-1.813-3.584-1.813H9.048v2.055zM12.813 28.819c.364 1.934 6.561 1.753 6.561-.121 0-.665-.79-.907-3.402-.907-2.855 0-3.341.181-3.159 1.028z"/></svg>