<svg aria-hidden="true" style="position:absolute;width:0;height:0;overflow:hidden" xmlns="http://www.w3.org/2000/svg">
  <defs>
    <symbol id="icon-facebook" viewBox="0 0 32 32">
      <path fill="#fea5bb" style="fill:var(--color1, #fea5bb)" d="M16 32c8.837 0 16-7.163 16-16S24.837 0 16 0 0 7.163 0 16s7.163 16 16 16z"/>
      <path fill="#fff" style="fill:var(--color2, #fff)" d="M20.446 15.982h-2.61v9.619h-3.955v-9.619H12v-3.38h1.881v-2.187c0-1.564.739-4.014 3.99-4.014l2.929.012v3.281h-2.125c-.349 0-.839.175-.839.921v1.989h2.955l-.346 3.377z"/>
    </symbol>
    <symbol id="icon-github" viewBox="0 0 32 32">
      <path fill="#fea5bb" style="fill:var(--color1, #fea5bb)" d="M32 16c0 8.837-7.163 16-16 16S0 24.837 0 16 7.163 0 16 0s16 7.163 16 16z"/>
      <path fill="#fff" style="fill:var(--color2, #fff)" d="M16 6.588c-5.169 0-9.412 4.242-9.412 9.412 0 4.411 3.095 8.419 7.206 9.412v-3.114a2.307 2.307 0 0 1-1.197-.03c-.556-.164-1.008-.535-1.344-1.1-.214-.361-.593-.752-.988-.723l-.097-1.099c.855-.073 1.595.521 2.034 1.259.195.328.419.52.708.605.278.082.578.043.926-.08.088-.698.407-.959.648-1.326v-.001c-2.451-.366-3.428-1.666-3.816-2.693-.514-1.363-.238-3.066.671-4.142.018-.021.05-.076.037-.114-.417-1.258.091-2.299.11-2.41.481.142.559-.143 2.089.786l.264.159c.111.066.076.028.186.02A8.031 8.031 0 0 1 16 11.131a8.016 8.016 0 0 1 2.002.285l.086.009c-.007-.001.023-.005.075-.036 1.911-1.157 1.842-.779 2.355-.946.019.111.519 1.169.107 2.411-.056.171 1.657 1.739.708 4.256-.388 1.027-1.365 2.328-3.816 2.693v.001c.314.479.692.734.69 1.722v3.887c4.111-.993 7.206-5 7.206-9.412 0-5.169-4.242-9.412-9.412-9.412z"/>
    </symbol>
    <symbol id="icon-telegram" viewBox="0 0 32 32">
      <path fill="#fea5bb" style="fill:var(--color1, #fea5bb)" d="M32 16c0 8.837-7.163 16-16 16S0 24.837 0 16 7.163 0 16 0s16 7.163 16 16z"/>
      <path fill="#fff" style="fill:var(--color2, #fff)" d="m12.867 18.375-.318 4.169c.454 0 .651-.182.887-.401l2.13-1.9 4.415 3.017c.81.421 1.38.199 1.599-.695l2.898-12.673c.257-1.117-.433-1.554-1.222-1.28L6.224 14.698c-1.162.421-1.145 1.026-.198 1.3l4.354 1.264 10.115-5.907c.476-.294.909-.131.553.163l-8.182 6.857z"/>
    </symbol>
    <symbol id="icon-close" viewBox="0 0 32 32">
      <path stroke-width="2" d="m2.519 2 26.963 28M2 29.481 30 2.518"/>
    </symbol>
    <symbol id="icon-menu" viewBox="0 0 46 32">
      <path stroke-width="2.286" d="M0 2.286h45.714M0 16h45.714M0 29.714h45.714"/>
    </symbol>
    <symbol id="icon-arrow" viewBox="0 0 22 32">
      <path stroke-linejoin="round" stroke-linecap="round" stroke-width="6.4" d="m3.471 3.2 13.7 12.8-13.7 12.8"/>
    </symbol>
    <symbol id="icon-heart" viewBox="0 0 28 32">
      <path stroke-width=".308" d="M.667 11.16c.587 2.696 1.894 5.088 3.953 7.163 1.839 1.86 3.455 2.99 6.008 4.163h.001l1.238.581v8.47h1.73v-7.901l.159.047c.229.066.567.066.796 0h.001l.159-.046v7.901h1.73v-8.481l1.179-.536c2.469-1.138 4.263-2.372 6.008-4.141 2.786-2.829 4.217-6.052 4.217-9.561.012-3.851-2.01-7-5.213-8.076-.689-.24-1.054-.274-2.316-.262M.667 11.16l13.614-8.305-.098-.072M.667 11.16C.533 10.545.465 9.706.462 8.884c-.003-.82.059-1.636.194-2.201.723-3.189 2.943-5.549 5.82-6.152M.667 11.16 6.475.531M20.317.482zm0 0c-.658.006-1.07.02-1.444.074-.376.054-.709.146-1.208.303h-.002c-1.188.385-2.356.994-3.133 1.632l-.001.001-.346.291m0 0-.543-.401C11.968 1.152 10.255.553 8.244.471h-.001A15.571 15.571 0 0 0 7.207.47c-.312.01-.586.03-.733.063m7.709 2.25L6.475.532m6.684 3.701c-.238-.226-.669-.537-1.14-.832a9.827 9.827 0 0 0-1.336-.718 10.047 10.047 0 0 0-1.5-.419c-1.975-.362-3.49.022-4.825 1.21l-.001.001a6.666 6.666 0 0 0-.795.844 3.015 3.015 0 0 0-.232.33l.243.044c.238.042.56.096.909.154 1.231.192 2.186.449 3.209.942 1.02.492 2.103 1.215 3.592 2.33l.001.001c.605.464 1.625 1.059 2.651 1.541l.003.001c.458.226.898.452 1.238.636.17.092.316.175.427.242.056.034.104.064.142.091a.608.608 0 0 1 .098.08c.128.137.234.274.318.447s.141.372.182.631c.081.512.098 1.281.098 2.571 0 1.17.003 1.784.034 2.135.015.175.036.271.061.332a.362.362 0 0 0 .096.135c.246.24.583.23.762.031l.004-.004c.05-.052.097-.135.125-.456.027-.32.033-.837.033-1.723 0-1.173.029-1.886.159-2.378a1.75 1.75 0 0 1 .292-.622 2.34 2.34 0 0 1 .488-.459l.002-.001a1.77 1.77 0 0 1 .647-.308c.27-.071.643-.124 1.24-.193h.001c1.864-.207 2.941-.447 4.23-.937.405-.154.704-.268.927-.371.225-.103.357-.188.439-.273a.501.501 0 0 0 .134-.302c.02-.142.014-.324.002-.588v-.003a8.836 8.836 0 0 0-.256-1.707v-.001c-.709-2.681-2.921-4.56-5.316-4.56-1.787 0-3.967.84-5.314 2.061l-.001.001c-.22.197-.405.352-.572.459s-.327.175-.495.182a.843.843 0 0 1-.486-.149 3.572 3.572 0 0 1-.517-.425zm-9.972.388-.003-.001.003.001zm5.826 3.976-.001-.001C7.78 7.682 6.435 7.012 5.25 6.717a14.269 14.269 0 0 0-1.803-.295 6.97 6.97 0 0 0-.715-.04 1.234 1.234 0 0 0-.224.019 2.17 2.17 0 0 0-.148.496 8.7 8.7 0 0 0-.127.893c-.063.665-.077 1.407-.019 1.947.316 2.926 1.588 5.398 4.032 7.743 1.927 1.865 4.325 3.319 7.043 4.235l.002.001.862.305.874-.306c2.542-.871 5.036-2.326 6.844-4.018 1.246-1.168 1.889-1.964 2.711-3.37l.001-.001c.254-.428.603-1.203.874-1.892.135-.344.248-.661.32-.899a2.99 2.99 0 0 0 .058-.218 13.238 13.238 0 0 0-.912.3h-.001c-1.188.432-2.967.816-4.402.944h-.001l-.063.005c-.323.027-.548.045-.715.089-.166.044-.252.106-.311.216-.067.126-.107.328-.127.676-.018.322-.018.746-.018 1.313v.121c0 1.098-.014 1.745-.096 2.184a1.768 1.768 0 0 1-.189.553 1.974 1.974 0 0 1-.328.417c-.235.247-.47.425-.733.54s-.547.164-.871.164c-.5 0-.927-.099-1.284-.317s-.63-.547-.835-.983c-.105-.223-.164-.436-.198-.864-.033-.423-.042-1.067-.042-2.156 0-.906-.009-1.537-.031-1.957a4.775 4.775 0 0 0-.042-.47.824.824 0 0 0-.035-.144c-.001-.001-.007-.008-.023-.02s-.039-.029-.068-.048a3.193 3.193 0 0 0-.225-.13 8.752 8.752 0 0 0-.654-.31c-1.006-.42-2.333-1.164-3.138-1.761-.296-.219-.959-.703-1.48-1.084l-.001-.001zM2.49 6.407c-.002.001-.002.001 0 0zm.036-.038-.001.002.001-.002z"/>
    </symbol>
    <symbol id="icon-apples" viewBox="0 0 32 32">
      <path d="M29.626 21.411c-1.292-.458-2.382-.344-3.242.018.145-.877.47-1.832 1.17-2.481a1.065 1.065 0 0 0-1.449-1.561c-1.229 1.14-1.706 2.748-1.874 4.081a4.036 4.036 0 0 0-1.058-.311l1.89-9.83a1.065 1.065 0 0 0-1.046-1.266h-.204c.094-.5.141-.997.137-1.47-.016-1.994-.903-3.495-2.374-4.017-1.41-.5-2.59-.35-3.507.066.145-.976.494-2.063 1.282-2.794A1.065 1.065 0 0 0 17.902.285c-1.32 1.225-1.815 2.965-1.982 4.386-.735-.348-1.644-.527-2.708-.33-1.094-1.571-2.613-2.296-4.089-1.942-1.451.349-2.358 1.115-2.901 1.962-.41-.899-.712-2.001-.452-3.036A1.065 1.065 0 0 0 3.705.806c-.439 1.746.095 3.476.729 4.758-1.016.137-2.117.65-3.049 1.866-.578.755-.773 1.698-.596 2.7a1.065 1.065 0 0 0-.674 1.197l3.809 19.809c.096.501.535.864 1.046.864h15.237c.511 0 .949-.362 1.046-.864l.038-.195c.287.198.596.363.927.487 1.266.471 2.447.278 3.044.118.316.085.795.179 1.364.179.506 0 1.084-.075 1.68-.297 2.36-.879 3.615-3.839 3.596-6.178-.015-1.904-.866-3.339-2.276-3.839zm-6.952-9.221c-.49 4.705-4.452 7.91-9.971 7.91s-9.481-3.204-9.971-7.91h19.942zm-6.642-4.675a1.047 1.047 0 0 0 1.86 0c.029-.048.29-.466.769-.777.629-.408 1.35-.46 2.203-.157.851.302.952 1.518.956 2.027.004.463-.064.962-.191 1.453h-7.126c.236-1.19.094-2.492-.289-3.669a2.12 2.12 0 0 1 1.047.346c.479.311.74.729.769.777zM3.077 8.724c.55-.719 1.182-1.068 1.932-1.069h.002c.57 0 1.016.208 1.066.232a1.05 1.05 0 0 0 1.079-.037c.331-.211.51-.592.481-.983-.006-.077-.116-1.893 1.983-2.397.876-.211 1.625.754 1.906 1.178.807 1.22 1.221 3.108.777 4.413H2.954c-.141-.443-.179-.943.122-1.336zM5.851 29.87 3.74 18.892c.138.133.281.263.427.389 2.208 1.901 5.239 2.948 8.535 2.948s6.328-1.047 8.535-2.948c.052-.044.102-.09.152-.135l-.431 2.243c-.02.007-.041.013-.061.021-1.41.5-2.261 1.935-2.276 3.839-.009 1.164.297 2.483.898 3.622l-.192.999H5.85zm21.711-.438c-.943.351-1.881.017-1.916.005a1.04 1.04 0 0 0-.768 0c-.009.004-.96.352-1.917-.005-1.338-.498-2.223-2.556-2.21-4.165.004-.466.095-1.578.858-1.849.349-.124.661-.175.939-.175 1.108 0 1.657.812 1.782 1.024a1.047 1.047 0 0 0 1.862 0c.156-.265.977-1.468 2.721-.849.763.271.854 1.383.858 1.849.013 1.609-.872 3.667-2.21 4.166z"/>
    </symbol>
    <symbol id="icon-milk" viewBox="0 0 21 32">
      <path d="M2.333.144c-.35.188-.553.563-.553 1.006.006.813.209 1.556.614 2.2l.178.294-.338.381c-.381.425-.473.581-.645 1.088-.141.412-.153 1.162-.031 1.581.43 1.438 1.854 2.269 3.248 1.9.473-.125.761-.281 1.203-.656l.375-.312.35.175c.196.1.528.244.743.325l.381.138v.7c0 1.106.227 1.762.81 2.356s1.498.9 2.29.762c.565-.1 1.117-.381 1.492-.762.583-.594.81-1.25.81-2.356v-.7l.387-.138c.209-.081.54-.225.737-.325l.35-.175.375.312c.442.375.731.531 1.203.656 1.394.369 2.818-.462 3.248-1.9.123-.419.111-1.169-.031-1.581-.172-.506-.264-.662-.645-1.088l-.338-.381.178-.294c.405-.644.608-1.387.614-2.2 0-.444-.203-.819-.553-1.006L18.521 0H2.595l-.264.144zM17.068 2.1c0 .019-.178.313-.399.663-.651 1.031-.626 1.256.239 2.169.313.331.602.662.645.737.233.463-.233 1.038-.749.919-.123-.025-.393-.244-.786-.631-.786-.775-1.056-.862-1.658-.519-.694.4-1.578.806-2.008.925-.608.175-.817.306-.976.638-.129.256-.141.362-.141 1.362 0 1.231-.049 1.431-.399 1.6-.252.125-.301.125-.553 0-.35-.169-.399-.369-.399-1.6 0-1-.012-1.106-.135-1.362-.166-.325-.375-.463-.982-.638-.528-.15-1.308-.494-1.738-.775-.405-.263-.761-.362-1.044-.313-.184.037-.368.181-.86.662-.405.394-.694.625-.817.65-.51.119-.976-.463-.743-.919.043-.075.332-.406.645-.737.866-.912.89-1.138.239-2.169-.221-.35-.399-.644-.399-.663 0-.025 2.929-.038 6.508-.038s6.508.013 6.508.038zM.485 13.206c-.313.212-.485.512-.485.844 0 .225 3.119 16.925 3.229 17.275.055.194.282.425.522.55.227.125.387.125 6.809.125s6.582 0 6.809-.125c.239-.125.467-.356.522-.55.11-.35 3.229-17.05 3.229-17.275 0-.331-.172-.631-.485-.844l-.209-.144H.694l-.209.144zm18.21 2.275c-.061.5-.418 1.587-.682 2.081-1.283 2.375-3.714 3.819-6.729 3.988-2.278.131-4.206-.331-5.82-1.394a7 7 0 0 1-2.265-2.438c-.307-.544-.712-1.712-.774-2.237l-.043-.356h16.356l-.043.356zM4.39 21.919c2.634 1.775 6.569 2.244 9.885 1.169a10.688 10.688 0 0 0 3.18-1.688c.276-.219.295-.219.264-.081-.018.081-.381 1.994-.804 4.244s-.78 4.156-.798 4.231l-.031.144H5.035l-.031-.144c-.018-.075-.375-1.981-.798-4.231s-.786-4.163-.804-4.244c-.031-.137-.012-.137.264.081.16.125.491.356.724.519z"/>
    </symbol>
    <symbol id="Ellipse-1" viewBox="0 0 32 32">
      <path d="M32 16c0 8.837-7.163 16-16 16S0 24.837 0 16 7.163 0 16 0s16 7.163 16 16z"/>
    </symbol>
    <symbol id="close" viewBox="0 0 32 32">
      <path fill="none" stroke="#fff" style="stroke: var(--color1, #fff)" stroke-linejoin="miter" stroke-linecap="butt" stroke-miterlimit="4" stroke-width="2" d="M2.52 2l26.96 28M2 29.48l28-26.96"></path>
    </symbol>
    <symbol id="menu" viewBox="0 0 46 32">
      <path fill="none" stroke="#d41443" style="stroke: var(--color1, #d41443)" stroke-linejoin="miter" stroke-linecap="butt" stroke-miterlimit="4" stroke-width="2.2857" d="M0 2.286h45.714M0 16h45.714M0 29.714h45.714"></path>
      </symbol>
    <symbol id="arrow" viewBox="0 0 22 32">
      <path fill="none" stroke="#d41443" style="stroke: var(--color1, #d41443)" stroke-linejoin="round" stroke-linecap="round" stroke-miterlimit="4" stroke-width="6.4" d="M5.575 3.2l12.88 12.8-12.88 12.8"></path>
    </symbol>
  </defs>
</svg>
