<!-- Generated by IcoMoon.io -->
<svg version="1.1" xmlns="http://www.w3.org/2000/svg" width="32" height="32" viewBox="0 0 32 32">
<title>fav-vec</title>
<path fill="#fff" d="M30.491 15.396c0 8.17-6.488 14.792-14.491 14.792s-14.491-6.623-14.491-14.792c0-8.17 6.488-14.792 14.491-14.792s14.491 6.623 14.491 14.792z"></path>
<path fill="#d41443" d="M12.084 0.53c-6.987 2.116-11.178 7.616-11.178 14.568 0 5.682 2.916 10.639 7.716 13.117 2.491 1.269 2.855 0.363 0.547-1.39-1.64-1.33-1.944-1.934-1.944-4.171 0-1.572-0.365-2.841-0.911-3.325-1.094-0.907-1.215-3.264-0.122-4.11 0.425-0.363 0.851-1.572 0.911-2.66 0.304-3.989 4.617-7.737 8.931-7.737s8.627 3.748 8.931 7.737c0.061 1.088 0.486 2.297 0.911 2.66 1.094 0.846 0.972 3.204-0.121 4.11-0.547 0.484-0.911 1.753-0.911 3.325 0 2.237-0.304 2.841-1.944 4.171-2.552 1.995-1.823 2.72 1.033 0.967 4.010-2.478 6.987-7.858 6.987-12.633 0-9.551-9.963-17.288-18.833-14.628z"></path>
<path fill="#d41443" d="M12.874 7.542c-1.094 0.484-2.005 1.088-2.005 1.451 0 0.665 3.281 1.874 5.164 1.874s5.164-1.209 5.164-1.874c0-0.725-3.767-2.357-5.285-2.357-0.608 0.061-2.005 0.423-3.038 0.907z"></path>
<path fill="#d41443" d="M9.411 11.289c-0.182 0.242-0.364 1.028-0.364 1.813 0 1.39 0.061 1.39 6.987 1.39s6.987 0 6.987-1.39c0-2.055-0.547-2.297-2.491-1.33-2.187 1.149-6.804 1.149-8.991 0-0.972-0.484-1.883-0.665-2.126-0.484z"></path>
<path fill="#d41443" d="M7.649 16.669c-0.972 1.028 0.668 1.451 5.407 1.451h5.103v2.116c0 1.148 0.304 2.116 0.608 2.116 0.364 0 0.608-0.907 0.608-2.055 0-1.995 0.122-2.116 2.43-2.297 1.337-0.121 2.43-0.484 2.43-0.786 0-0.665-15.917-1.209-16.586-0.544z"></path>
<path fill="#d41443" d="M9.046 21.988c0 3.325 1.154 3.989 6.987 3.989s6.987-0.665 6.987-3.989c0-1.451-0.304-2.055-0.911-2.055-0.547 0-0.911 0.544-0.911 1.451 0 3.385-4.617 3.687-5.285 0.363-0.304-1.753-0.486-1.813-3.584-1.813h-3.281v2.055z"></path>
<path fill="#d41443" d="M12.813 28.819c0.364 1.934 6.561 1.753 6.561-0.121 0-0.665-0.79-0.907-3.402-0.907-2.855 0-3.341 0.181-3.159 1.028z"></path>
</svg>
